<?xml version="1.0" encoding="UTF-8"?>
<svg id="Layer_2" xmlns="http://www.w3.org/2000/svg" viewBox="0 0 374 811">
  <defs>
    <style>
      .cls-1 {
        fill: #010001;
      }
    </style>
  </defs>
  <g id="Layer_1-2" data-name="Layer_1">
    <g>
      <path class="cls-1" d="M257.42,382.41c-.47-15.33-12.75-27.52-27.76-27.53h-24.89c-1.6,0-2.89,1.32-2.9,2.96-.01,7.19-.02,24.98-.02,25.48,0,.62.01,1.25.04,1.86v26.58h27.77c15.01-.01,27.3-12.2,27.76-27.53h0c0-.31.02-.61.02-.91s0-.6-.02-.9h0Z"/>
      <path class="cls-1" d="M0,0v811h374V0H0ZM83.83,350.41h.01c.19.01.38.02.57,0,.51-.01.83.09.83,1.67-.72.71-1.07,1.74-.93,2.76.1.45.32.88.62,1.22.72.86,1.37,1.77,1.94,2.74.23.39.36.64.36.64l.4,3.28.3.81.4,3.99.15.26.26.45.17,1.12.03.17c.22-.21.45-.42.66-.6.63-.57,1.13-.99,1.13-.99.06-.24.16-.47.27-.7.62-1.18,1.57-2.14,2.73-2.78.05-.11.1-.23.14-.35.04-.12.08-.24.11-.36.12-.44.21-.88.25-1.33v-1.12l1.19-.82,1.6-1.74.3-1.43-.6-.41.3-.71.4-.82v-1.02l-.79-.71-1.6-.5-2-1.85-2.89-2.45h-3.8l-1.09.52-.71-.31c4.25-7.71,12.94-11.68,21.4-9.76.36.13.71.31,1.02.54.17.13.33.29.46.46l-.79-.05-1.6-.09-.5.62-.19,1.43-1.6,1.54-.7,1.43.4,3.88,1.6,1.64,1,.91c.44.36,1.06.36,1.49,0,.46-.33.94-.62,1.45-.86.22-.1.36-.16.36-.16h.7v1.64l.6,1.84.79,1.14.1.81.11,4.8.7,2.66,1,1.53,1.09.52,1.09-.21,1.1-1.64,1.8-2.96v-.93l.19-.63.3-.7.9-.71v-1.12l-.1-.71-.21-.93.21-.81.79-1.23.7-.81s.05.05.07.08c.2.34.96,1.72,1.14,5.13h-.06c.04.55.07,1.11.07,1.67,0,.15,0,.32-.01.48v.03c0,.1,0,.2-.01.29v.02c-.02.41-.04.81-.09,1.22-1.02,10.28-9.48,18.12-19.59,18.14-.68,0-1.35-.03-2.02-.1-3.23-.33-6.32-1.48-9-3.34-.53-.36-1.03-.75-1.52-1.16h0c-6.95-5.87-9.14-15.79-5.33-24.14ZM290.04,472.87c-.76.53-1.66.82-2.58.82h-.05s-32.03-.25-32.03-.25c-2.85-.02-5.56-1.31-7.42-3.52l-27.45-32.75c-4.16-4.97-10.32-7.84-16.8-7.84-1.01,0-1.83.82-1.83,1.83v38.14c0,2.3-1.82,4.16-4.07,4.16h-26.2c-2.25,0-4.07-1.87-4.07-4.16v-27.33c0-6.73-5.45-12.18-12.18-12.18h-36.23c-1.01,0-1.83.82-1.83,1.83v37.21c0,2.55-2.03,4.63-4.53,4.63h-25.28c-2.5,0-4.52-2.08-4.52-4.63v-74.72c0-3.24,2.56-5.87,5.73-5.87h24.48c2.28,0,4.12,1.89,4.12,4.21v8.89c0,5.99,4.74,10.86,10.61,10.87h37.8c1.01,0,1.83-.82,1.83-1.83v-61.44c0-6.42,5.09-11.64,11.37-11.64h67.28c24.72,0,45.26,20.19,45.53,45.5.25,18.76-10.71,35.79-27.66,42.99-.02.09-.07.17-.14.23-.96.45-1.82,1.09-2.54,1.89-.58.71-1.03,1.53-1.31,2.42-.78,2.67,31.14,36.05,31.14,36.05,1.43,2.12.91,5.03-1.17,6.5Z"/>
    </g>
  </g>
</svg>